The story of King George VI of Britain, his impromptu ascension to the throne and the speech therapist who helped the unsure monarch become worthy of it.
 


Director: 
Tom Hooper

 Writer: 
David Seidler (screenplay)
 
Stars:
 Colin Firth, Geoffrey Rush and Helena Bonham Carter 

Media info:

General
Complete name                    : E:\\\\\\\\torrent2\\\\\\\\The.Kings.Speech.2010.BluRayrip.mkv.1080p.AVC.DTS-ACB-Team\\\\\\\\The.Kings.Speech.2010.BluRayrip.mkv.1080p.AVC.DTS-ACB-Team.mkv
Format                           : Matroska
File size                        : 11.2 GiB
Duration                         : 1h 58mn
Overall bit rate                 : 13.5 Mbps
Encoded date                     : UTC 2011-04-06 13:43:18
Writing application              : mkvmerge v3.2.0 (\\\\\\\'Beginnings\\\\\\\') built on Feb 12 2010 16:46:17
Writing library                  : libebml v0.7.9 + libmatroska v0.8.1

Video
ID                               : 1
Format                           : AVC
Format/Info                      : Advanced Video Codec
Format profile                   : Main@L4.1
Format settings, CABAC           : Yes
Format settings, ReFrames        : 4 frames
Muxing mode                      : Container profile=Unknown@4.1
Codec ID                         : V_MPEG4/ISO/AVC
Duration                         : 1h 58mn
Bit rate                         : 12.0 Mbps
Width                            : 1 920 pixels
Height                           : 1 080 pixels
Display aspect ratio             : 16:9
Frame rate mode                  : Variable
Frame rate                       : 23.976 fps
Color space                      : YUV
Chroma subsampling               : 4:2:0
Bit depth                        : 8 bits
Scan type                        : Progressive
Bits/(Pixel*Frame)               : 0.241
Stream size                      : 9.72 GiB (87%)
Writing library                  : x264 core 112
Encoding settings                : cabac=1 / ref=2 / deblock=1:0:0 / analyse=0x1:0x111 / me=hex / subme=6 / psy=1 / psy_rd=1.00:0.00 / mixed_ref=0 / me_range=16 / chroma_me=1 / trellis=0 / 8x8dct=0 / cqm=0 / deadzone=21,11 / fast_pskip=1 / chroma_qp_offset=-2 / threads=3 / sliced_threads=0 / nr=0 / decimate=1 / interlaced=0 / constrained_intra=0 / bframes=2 / b_pyramid=2 / b_adapt=1 / b_bias=0 / direct=1 / weightb=0 / open_gop=0 / weightp=2 / keyint=240 / keyint_min=23 / scenecut=40 / intra_refresh=0 / rc_lookahead=40 / rc=2pass / mbtree=1 / bitrate=12000 / ratetol=1.0 / qcomp=0.60 / qpmin=3 / qpmax=51 / qpstep=4 / cplxblur=20.0 / qblur=0.5 / ip_ratio=1.40 / aq=1:1.00
Language                         : English
Color primaries                  : BT.709-5, BT.1361, IEC 61966-2-4, SMPTE RP177
Transfer characteristics         : BT.709-5, BT.1361
Matrix coefficients              : BT.709-5, BT.1361, IEC 61966-2-4 709, SMPTE RP177

Audio
ID                               : 2
Format                           : DTS
Format/Info                      : Digital Theater Systems
Codec ID                         : A_DTS
Duration                         : 1h 58mn
Bit rate mode                    : Constant
Bit rate                         : 1 510 Kbps
Channel(s)                       : 6 channels
Channel positions                : Front: L C R, Side: L R, LFE
Sampling rate                    : 48.0 KHz
Bit depth                        : 24 bits
Video delay                      : 10ms
Stream size                      : 1.25 GiB (11%)
Language                         : English

Text #1
ID                               : 3
Format                           : VobSub
Muxing mode                      : zlib
Codec ID                         : S_VOBSUB
Codec ID/Info                    : The same subtitle format used on DVDs
Language                         : Spanish

Text #2
ID                               : 4
Format                           : VobSub
Muxing mode                      : zlib
Codec ID                         : S_VOBSUB
Codec ID/Info                    : The same subtitle format used on DVDs
Language                         : English

Text #3
ID                               : 5
Format                           : UTF-8
Codec ID                         : S_TEXT/UTF8
Codec ID/Info                    : UTF-8 Plain Text
Language                         : Dutch

Menu
00:00:00.000                     : en:Chapter 1
00:05:17.943                     : en:Chapter 2
00:07:38.500                     : en:Chapter 3
00:12:16.569                     : en:Chapter 4
00:17:51.946                     : en:Chapter 5
00:29:17.506                     : en:Chapter 6
00:34:25.230                     : en:Chapter 7
00:38:44.239                     : en:Chapter 8
00:45:49.330                     : en:Chapter 9
00:56:05.320                     : en:Chapter 10
01:00:56.111                     : en:Chapter 11
01:05:03.525                     : en:Chapter 12
01:11:48.554                     : en:Chapter 13
01:14:32.969                     : en:Chapter 14
01:16:46.102                     : en:Chapter 15
01:21:24.963                     : en:Chapter 16
01:23:35.427                     : en:Chapter 17
01:31:03.959                     : en:Chapter 18
01:33:46.746                     : en:Chapter 19
01:41:48.769                     : en:Chapter 20
01:48:16.782                     : en:Chapter 21
01:51:33.562                     : en:Chapter 22

